<?xml version="1.0" encoding="UTF-8"?>
<svg width="256" height="256" viewBox="0 0 256 256" fill="none" xmlns="http://www.w3.org/2000/svg" role="img" aria-label="LMS Logo">
  <defs>
    <linearGradient id="g" x1="0" y1="0" x2="1" y2="1">
      <stop offset="0%" stop-color="#2563EB"/>
      <stop offset="100%" stop-color="#60A5FA"/>
    </linearGradient>
    <filter id="shadow" x="-20%" y="-20%" width="140%" height="140%">
      <feDropShadow dx="0" dy="6" stdDeviation="8" flood-color="#000" flood-opacity="0.15"/>
    </filter>
  </defs>

  <!-- Rounded square background -->
  <rect x="24" y="24" width="208" height="208" rx="32" fill="url(#g)" filter="url(#shadow)"/>

  <!-- Book / diploma mark -->
  <g transform="translate(48,56)">
    <path d="M24 28c0-6.627 5.373-12 12-12h64c6.627 0 12 5.373 12 12v72c0 6.627-5.373 12-12 12H36c-6.627 0-12-5.373-12-12V28z" fill="#ffffff" fill-opacity="0.95"/>
    <path d="M44 44h68" stroke="#2563EB" stroke-width="6" stroke-linecap="round"/>
    <path d="M44 64h68" stroke="#2563EB" stroke-width="6" stroke-linecap="round"/>
    <path d="M44 84h48" stroke="#2563EB" stroke-width="6" stroke-linecap="round"/>
    <!-- Bookmark ribbon -->
    <path d="M92 28v40l10-6 10 6V28" fill="#2563EB"/>
  </g>

  <!-- LMS letters -->
  <g fill="#ffffff" fill-opacity="0.98" transform="translate(56,172)">
    <path d="M0 0h10v28H0z"/>
    <path d="M18 0h10v18l10-18h10v28H38V10l-10 18H18z"/>
    <path d="M62 2c4-2 9-2 13 0 4 2 6 5 6 9 0 4-2 7-7 9l-6 2c-1 .4-2 1-2 2 0 1 .9 2 3 2 2 0 4-.5 6-1.5l4 7c-3 1.8-6 2.7-10 2.7-4.4 0-7.7-1-9.9-3-2.2-2-3.1-4.4-3.1-7.2 0-5 3-8.6 9-10.7l6-2c1.6-.5 2.4-1.2 2.4-2.1 0-1.3-1.2-2-3.6-2-2 0-4 .6-6 1.7l-4-7.1z"/>
  </g>
</svg>


